<svg width="40" height="46" viewBox="0 0 51 57" fill="none" xmlns="http://www.w3.org/2000/svg">
<g filter="url(#filter0_d_23_182)">
<path d="M16.9251 2.645C20.1026 1.77844 23.4793 1 25.5 1C27.5207 1 30.8974 1.77844 34.0749 2.645C37.3256 3.52625 40.6026 4.56906 42.5296 5.20062C43.3353 5.4675 44.0496 5.95693 44.5904 6.61268C45.1312 7.26844 45.4767 8.06392 45.5871 8.90775C47.3325 22.0589 43.2823 31.8056 38.3681 38.2534C36.2843 41.0116 33.7995 43.4406 30.9969 45.4591C30.0278 46.1575 29.0011 46.7717 27.9278 47.295C27.1078 47.6828 26.2263 48 25.5 48C24.7737 48 23.8951 47.6828 23.0722 47.295C21.9989 46.7718 20.9722 46.1576 20.0031 45.4591C17.2005 43.4405 14.7158 41.0116 12.6319 38.2534C7.71773 31.8056 3.66752 22.0589 5.41294 8.90775C5.52331 8.06392 5.86876 7.26844 6.40959 6.61268C6.95042 5.95693 7.6647 5.4675 8.47037 5.20062C11.2677 4.28063 14.0868 3.4285 16.9251 2.645Z" fill="#362E33"/>
<path d="M16.7921 2.16303L16.7936 2.16261C19.9597 1.29916 23.4011 0.5 25.5 0.5C27.5988 0.5 31.04 1.2991 34.206 2.16252C37.4688 3.04706 40.7551 4.09288 42.6854 4.72549L42.6869 4.72598C43.5821 5.02252 44.3755 5.56627 44.9762 6.29455C45.5766 7.02258 45.96 7.90552 46.0827 8.84197C47.8474 22.1383 43.7511 32.0149 38.7665 38.5555C36.6526 41.3534 34.1321 43.8172 31.2891 45.8648M16.7921 2.16303L30.9969 45.4591M16.7921 2.16303C13.946 2.94868 11.1192 3.80313 8.31416 4.72565L8.31315 4.72599C7.41794 5.02252 6.6245 5.56627 6.02385 6.29455C5.42341 7.02258 5.03995 7.90552 4.91729 8.84197M16.7921 2.16303L8.47037 5.20062C7.6647 5.4675 6.95042 5.95693 6.40959 6.61268C5.86876 7.26844 5.52331 8.06392 5.41294 8.90775M31.2891 45.8648L30.9969 45.4591M31.2891 45.8648C31.2892 45.8648 31.2892 45.8647 31.2893 45.8647L30.9969 45.4591M31.2891 45.8648C30.297 46.5799 29.2457 47.2087 28.1469 47.7444L28.1415 47.747L28.1415 47.747C27.3118 48.1394 26.3445 48.5 25.5 48.5C24.6553 48.5 23.6907 48.1392 22.8591 47.7473L22.8531 47.7445L22.8531 47.7444C21.7542 47.2087 20.7029 46.5798 19.7107 45.8647M30.9969 45.4591C30.0278 46.1575 29.0011 46.7717 27.9278 47.295C27.1078 47.6828 26.2263 48 25.5 48C24.7737 48 23.8951 47.6828 23.0722 47.295C21.9989 46.7718 20.9722 46.1576 20.0031 45.4591M19.7107 45.8647C19.7108 45.8647 19.7108 45.8647 19.7109 45.8648L20.0031 45.4591M19.7107 45.8647L20.0031 45.4591M19.7107 45.8647C16.8679 43.8171 14.3476 41.3534 12.2337 38.5558M20.0031 45.4591C17.2005 43.4405 14.7158 41.0116 12.6319 38.2534M12.6319 38.2534L12.2342 38.5565C12.234 38.5563 12.2339 38.556 12.2337 38.5558M12.6319 38.2534C7.71773 31.8056 3.66752 22.0589 5.41294 8.90775M12.6319 38.2534L12.2329 38.5548C12.2332 38.5551 12.2335 38.5555 12.2337 38.5558M12.2337 38.5558C7.24908 32.0152 3.15258 22.1385 4.91729 8.84197M5.41294 8.90775L4.91717 8.8429C4.91721 8.84259 4.91725 8.84228 4.91729 8.84197M5.41294 8.90775L4.91729 8.84197" stroke="#5D5D5D"/>
</g>
<defs>
<filter id="filter0_d_23_182" x="0" y="0" width="51" height="57" filterUnits="userSpaceOnUse" color-interpolation-filters="sRGB">
<feFlood flood-opacity="0" result="BackgroundImageFix"/>
<feColorMatrix in="SourceAlpha" type="matrix" values="0 0 0 0 0 0 0 0 0 0 0 0 0 0 0 0 0 0 127 0" result="hardAlpha"/>
<feOffset dy="4"/>
<feGaussianBlur stdDeviation="2"/>
<feComposite in2="hardAlpha" operator="out"/>
<feColorMatrix type="matrix" values="0 0 0 0 0 0 0 0 0 0 0 0 0 0 0 0 0 0 0.25 0"/>
<feBlend mode="normal" in2="BackgroundImageFix" result="effect1_dropShadow_23_182"/>
<feBlend mode="normal" in="SourceGraphic" in2="effect1_dropShadow_23_182" result="shape"/>
</filter>
</defs>
</svg>
