
<svg width="262" height="312" viewBox="0 0 262 312" fill="none" xmlns="http://www.w3.org/2000/svg">
<path fill-rule="evenodd" clip-rule="evenodd" d="M108.869 94.056H116.369V132.056H110.369C110.169 124.37 108.597 121.635 100.869 122.056L81.3693 129.056V170.056L108.369 179.556V167.056H116.369V198.056H109.869C110.394 192.875 109.374 190.434 103.369 187.556L1.36932 150.056V145.056L98.3693 107.056L108.869 105.556V94.056ZM74.3693 131.556L25.8693 150.056L74.3693 168.056V131.556Z" fill="#F7E0B6"/>
<path d="M149.369 120.556V236.556H213.869L149.369 120.556Z" fill="#F7E0B6"/>
<path d="M149.369 307.556V239.556H212.869L149.369 307.556Z" fill="#F7E0B6"/>
<path d="M244.869 256.056L156.369 306.056L217.869 239.556L244.869 256.056Z" fill="#F7E0B6"/>
<path d="M219.869 236.556L246.869 148.056V252.556L219.869 236.556Z" fill="#F7E0B6"/>
<path d="M149.369 113.556L216.369 232.556L246.869 136.556L149.369 113.556Z" fill="#F7E0B6"/>
<path d="M149.369 82.556V109.056L234.369 129.556L149.369 82.556Z" fill="#F7E0B6"/>
<path d="M4.36932 97.056V2.55607H38.3693V9.05607C22.8455 9.62402 14.3934 10.2197 11.3693 24.5561V42.056L109.369 43.056V30.0561H116.369V67.556H110.869C109.732 61.4435 107.963 59.0633 102.369 57.056H11.3693C9.50856 79.3146 13.7208 86.9099 31.8693 90.556H38.3693V97.056H4.36932Z" fill="#F7E0B6"/>
<path d="M4.36932 203.556V234.056H11.8693V222.556H95.3693L4.36932 291.056V310.556H11.8693V299.556H101.869C108.26 301.82 110.053 304.385 110.369 311.056H116.369V280.556H108.869V292.056H26.3693L119.869 222.556V214.556H18.3693C12.6359 212.683 10.8856 210.26 10.3693 203.556H4.36932Z" fill="#F7E0B6"/>
<path fill-rule="evenodd" clip-rule="evenodd" d="M232.369 78.0567C195.869 78.5567 195.869 1.55612 233.369 1.55607C270.869 1.55603 268.869 77.5568 232.369 78.0567ZM232.369 71.5567C208.869 70.0567 213.369 6.05669 233.369 6.05669C253.369 6.05669 255.869 73.0567 232.369 71.5567Z" fill="#F7E0B6"/>
<path d="M155.869 67.556C159.869 56.5567 171.369 48.5567 175.369 45.0567C179.369 41.5567 191.869 29.5568 192.369 22.5568C192.369 22.5568 193.115 16.2581 191.869 12.5568C189.836 6.51439 186.369 4.05674 179.369 2.05674C172.89 0.715682 169.182 0.581421 162.369 2.05674C155.869 4.05674 150.369 11.5568 149.869 13.5568C149.369 15.5568 148.869 19.0568 150.369 21.0568C154.959 25.5508 161.857 21.1853 157.369 13.0568C159.278 9.16726 160.869 7.55676 165.369 6.55674C165.369 6.55674 167.869 6.05676 172.369 6.55674C176.869 7.05672 182.369 12.5568 182.869 18.5568V24.0568C182.369 35.0568 163.369 48.5567 161.369 50.5567C159.369 52.5567 147.369 63.5567 148.869 75.5567H193.869V61.0567H190.369C190.474 65.6263 189.769 67.5009 184.869 67.556H155.869Z" fill="#F7E0B6"/>
<path fill-rule="evenodd" clip-rule="evenodd" d="M108.869 94.056H116.369V132.056H110.369C110.169 124.37 108.597 121.635 100.869 122.056L81.3693 129.056V170.056L108.369 179.556V167.056H116.369V198.056H109.869C110.394 192.875 109.374 190.434 103.369 187.556L1.36932 150.056V145.056L98.3693 107.056L108.869 105.556V94.056ZM74.3693 131.556L25.8693 150.056L74.3693 168.056V131.556Z" stroke="#F6E3B9"/>
<path d="M149.369 120.556V236.556H213.869L149.369 120.556Z" stroke="#F6E3B9"/>
<path d="M149.369 307.556V239.556H212.869L149.369 307.556Z" stroke="#F6E3B9"/>
<path d="M244.869 256.056L156.369 306.056L217.869 239.556L244.869 256.056Z" stroke="#F6E3B9"/>
<path d="M219.869 236.556L246.869 148.056V252.556L219.869 236.556Z" stroke="#F6E3B9"/>
<path d="M149.369 113.556L216.369 232.556L246.869 136.556L149.369 113.556Z" stroke="#F6E3B9"/>
<path d="M149.369 82.556V109.056L234.369 129.556L149.369 82.556Z" stroke="#F6E3B9"/>
<path d="M4.36932 97.056V2.55607H38.3693V9.05607C22.8455 9.62402 14.3934 10.2197 11.3693 24.5561V42.056L109.369 43.056V30.0561H116.369V67.556H110.869C109.732 61.4435 107.963 59.0633 102.369 57.056H11.3693C9.50856 79.3146 13.7208 86.9099 31.8693 90.556H38.3693V97.056H4.36932Z" stroke="#F6E3B9"/>
<path d="M4.36932 203.556V234.056H11.8693V222.556H95.3693L4.36932 291.056V310.556H11.8693V299.556H101.869C108.26 301.82 110.053 304.385 110.369 311.056H116.369V280.556H108.869V292.056H26.3693L119.869 222.556V214.556H18.3693C12.6359 212.683 10.8856 210.26 10.3693 203.556H4.36932Z" stroke="#F6E3B9"/>
<path fill-rule="evenodd" clip-rule="evenodd" d="M232.369 78.0567C195.869 78.5567 195.869 1.55612 233.369 1.55607C270.869 1.55603 268.869 77.5568 232.369 78.0567ZM232.369 71.5567C208.869 70.0567 213.369 6.05669 233.369 6.05669C253.369 6.05669 255.869 73.0567 232.369 71.5567Z" stroke="#F6E3B9"/>
<path d="M155.869 67.556C159.869 56.5567 171.369 48.5567 175.369 45.0567C179.369 41.5567 191.869 29.5568 192.369 22.5568C192.369 22.5568 193.115 16.2581 191.869 12.5568C189.836 6.51439 186.369 4.05674 179.369 2.05674C172.89 0.715682 169.182 0.581421 162.369 2.05674C155.869 4.05674 150.369 11.5568 149.869 13.5568C149.369 15.5568 148.869 19.0568 150.369 21.0568C154.959 25.5508 161.857 21.1853 157.369 13.0568C159.278 9.16726 160.869 7.55676 165.369 6.55674C165.369 6.55674 167.869 6.05676 172.369 6.55674C176.869 7.05672 182.369 12.5568 182.869 18.5568V24.0568C182.369 35.0568 163.369 48.5567 161.369 50.5567C159.369 52.5567 147.369 63.5567 148.869 75.5567H193.869V61.0567H190.369C190.474 65.6263 189.769 67.5009 184.869 67.556H155.869Z" stroke="#F6E3B9"/>
</svg>
